<svg viewBox="0 0 160 61" fill="none" xmlns="http://www.w3.org/2000/svg">
<path d="M16.7536 16.2153V29.6124H34.744V38.11H16.7536V52.2727H37.0407V61H6.03588V7.48803H37.0407V16.2153H16.7536ZM64.4647 51.1244L75.1824 18.5885H86.5891L70.8953 61H57.881L42.2638 18.5885H53.747L64.4647 51.1244ZM98.0443 13.5359C96.1559 13.5359 94.5738 12.949 93.2978 11.7751C92.073 10.5502 91.4605 9.04465 91.4605 7.25837C91.4605 5.47209 92.073 3.99202 93.2978 2.81818C94.5738 1.5933 96.1559 0.980859 98.0443 0.980859C99.9326 0.980859 101.489 1.5933 102.714 2.81818C103.99 3.99202 104.628 5.47209 104.628 7.25837C104.628 9.04465 103.99 10.5502 102.714 11.7751C101.489 12.949 99.9326 13.5359 98.0443 13.5359ZM103.327 18.5885V61H92.6089V18.5885H103.327ZM137.418 17.9761C142.471 17.9761 146.554 19.5837 149.667 22.799C152.78 25.9633 154.337 30.4035 154.337 36.1196V61H143.619V37.5742C143.619 34.2057 142.777 31.6284 141.093 29.8421C139.408 28.0048 137.112 27.0861 134.203 27.0861C131.243 27.0861 128.895 28.0048 127.16 29.8421C125.475 31.6284 124.633 34.2057 124.633 37.5742V61H113.916V18.5885H124.633V23.8708C126.062 22.0335 127.874 20.6045 130.069 19.5837C132.314 18.512 134.764 17.9761 137.418 17.9761Z" fill="black"/>
<ellipse cx="98" cy="7.5" rx="7" ry="6.5" fill="#721ACA"/>
</svg>
